<?xml version="1.0"?><svg enable-background="new 0 0 216 216" id="spotify" version="1.1" viewBox="0 0 216 216" xml:space="preserve" xmlns="http://www.w3.org/2000/svg" xmlns:xlink="http://www.w3.org/1999/xlink"><g><path d="M170.4139,108.4728C126.3767,89.5976,89.5019,87.508,61.0391,95.5156   c-5.8772,1.6524-10.0276,3.3712-12.3888,4.6484c-4.2032,2.2776-5.7636,7.5276-3.4884,11.7304   c2.2776,4.2032,7.5296,5.7656,11.7324,3.4884c0.1937-0.1056,0.8204-0.4064,1.8732-0.84c1.914-0.7928,4.2365-1.6012,6.9588-2.3672   c24.7052-6.9492,57.5177-5.0896,97.8712,12.2072c4.3928,1.8828,9.4804-0.1524,11.3632-4.5468   C176.8435,115.4416,174.8083,110.3556,170.4139,108.4728z" fill="none"/><path d="M157.4531,140.0664c-30.4611-17.4024-62.6971-19.5272-92.1484-12.7656   c-5.6524,1.3008-9.8244,2.6248-12.2364,3.574c-4.4472,1.7464-6.6368,6.7696-4.8888,11.2188   c1.746,4.4456,6.7696,6.6368,11.2188,4.8908c0.332-0.1328,1.1288-0.418,2.3537-0.8048c2.1347-0.6796,4.6231-1.3632,7.4255-2.0076   c25.5745-5.8752,53.514-4.0352,79.6876,10.9216c4.1504,2.3752,9.4376,0.93,11.8088-3.2188   C163.0447,147.7264,161.6035,142.4376,157.4531,140.0664z" fill="none"/><path d="M183.5447,77.836c-8.0876-4.8124-16.5508-8.7656-25.3436-11.914   c-33.4432-11.9648-68.8204-11.7776-102.0392-4.344c-8.5528,1.918-14.9059,3.8516-18.5232,5.1992   c-4.4804,1.668-6.76,6.6484-5.094,11.1292c1.668,4.4804,6.6504,6.7576,11.1292,5.0936c0.6581-0.246,2.0584-0.7228,4.1308-1.3556   c3.5353-1.074,7.6052-2.16,12.1368-3.1756c30.2988-6.7812,62.5192-6.9532,92.4276,3.75c7.7596,2.7772,15.2128,6.2616,22.33,10.492   c4.1076,2.4416,9.418,1.094,11.8612-3.0156C189.0019,85.586,187.6523,80.2772,183.5447,77.836z" fill="none"/><path d="M108,0C48.3535,0,0,48.3516,0,108s48.3535,108,108,108c59.6463,0,108-48.3516,108-108S167.6463,0,108,0z    M160.6739,151.8748c-2.3712,4.1488-7.6584,5.594-11.8088,3.2188c-26.1736-14.9568-54.1131-16.7968-79.6876-10.9216   c-2.8024,0.6444-5.2908,1.328-7.4255,2.0076c-1.2249,0.3868-2.0217,0.672-2.3537,0.8048   c-4.4492,1.746-9.4728-0.4452-11.2188-4.8908c-1.748-4.4492,0.4416-9.4724,4.8888-11.2188c2.412-0.9492,6.584-2.2732,12.2364-3.574   c29.4513-6.7616,61.6873-4.6368,92.1484,12.7656C161.6035,142.4376,163.0447,147.7264,160.6739,151.8748z M174.9607,119.836   c-1.8828,4.3944-6.9704,6.4296-11.3632,4.5468c-40.3535-17.2968-73.166-19.1564-97.8712-12.2072   c-2.7223,0.766-5.0448,1.5744-6.9588,2.3672c-1.0528,0.4336-1.6795,0.7344-1.8732,0.84   c-4.2028,2.2772-9.4548,0.7148-11.7324-3.4884c-2.2752-4.2028-0.7148-9.4528,3.4884-11.7304   c2.3612-1.2772,6.5116-2.996,12.3888-4.6484c28.4628-8.0076,65.3376-5.918,109.3748,12.9572   C174.8083,110.3556,176.8435,115.4416,174.9607,119.836z M174.6991,92.7108c-7.1172-4.2304-14.5704-7.7148-22.33-10.492   c-29.9084-10.7032-62.1288-10.5312-92.4276-3.75c-4.5316,1.0156-8.6015,2.1016-12.1368,3.1756   C45.7323,82.2772,44.332,82.754,43.6739,83c-4.4788,1.664-9.4612-0.6132-11.1292-5.0936c-1.666-4.4808,0.6136-9.4612,5.094-11.1292   c3.6173-1.3476,9.9704-3.2812,18.5232-5.1992c33.2188-7.4336,68.596-7.6208,102.0392,4.344   c8.7928,3.1484,17.256,7.1016,25.3436,11.914c4.1076,2.4412,5.4572,7.75,3.0156,11.8592   C184.1171,93.8048,178.8067,95.1524,174.6991,92.7108z" fill="#C1DB66"/></g></svg>